<svg xmlns="http://www.w3.org/2000/svg" xmlns:xlink="http://www.w3.org/1999/xlink" width="929.093" height="275.146" viewBox="0 0 929.093 275.146">
  <defs>
    <clipPath id="clip-path">
      <path id="Trazado_1776" data-name="Trazado 1776" d="M75.45,49.93V262.4H287.93V49.93Z" fill="none"/>
    </clipPath>
  </defs>
  <g id="BEF_CHICA_COLOR" data-name="BEF CHICA_COLOR" transform="translate(-75.45 -49.93)">
    <g id="Grupo_757" data-name="Grupo 757">
      <g id="Grupo_753" data-name="Grupo 753">
        <path id="Trazado_1677" data-name="Trazado 1677" d="M780.41,262.08c-.81,1.31-1.51,3.32-3.04,3.81-6.3,1.06-4.47-8.02-4.25-11.93.06-1.12-.17-2.36.32-3.4a1.048,1.048,0,0,1,.88-.57,2.5,2.5,0,0,1,1.02.1,2.139,2.139,0,0,1,1.62,2.47c-.27,3.07-1.07,5.98-.65,9.06,4.38-4.83,6.75-11.4,11.69-15.68a3.456,3.456,0,0,1,1.21-.51c1.54-.19,1.12,2.4-.3,3.56-3.53,3.87-5.79,8.69-8.5,13.08Z" fill="#55555a"/>
        <path id="Trazado_1678" data-name="Trazado 1678" d="M793.76,251.55a21.95,21.95,0,0,0-3.81,9.62c-.14,1.72-1.26,1.66-2.3.65-2.47-2.01,1.2-8.31,2.31-10.61.33-.7.66-1.52,1.51-1.73,1.14-.31,2.68.84,2.28,2.06Zm5.81-11.63c-.64,1.13-1.87,4.87-3.44,4.32-3.03-1.22-.57-3.22.85-4.64,1.1-1.35,3.38-2.45,2.59.32Z" fill="#55555a"/>
        <path id="Trazado_1679" data-name="Trazado 1679" d="M806.77,251.73c-.02-.16-1.49.91-1.57.98a38.863,38.863,0,0,0-8.27,9.5c-.67,2.21-3.13,1.57-3.82-.24-.33-.77,0-1.34.16-2.11.55-2.65,4.61-11.32,5.96-13.55.77-1.4,3.44.64,3.08,1.89-.03.27-3.43,5.39-3.56,6.69.02-.33,4.26-4.29,5.76-5.56,1.94-1.91,5.01-1.19,5.33,1.65.19,1.51-.45,2.93-.72,4.37-.1.53-.97,2.63.06,2.77.73.07,1.11-.76,1.7-1a1.106,1.106,0,0,1,1.35.32c.52,1.3-.91,2.57-1.95,3.12-2.04.94-4.45-1.13-4.42-3.46a24.34,24.34,0,0,1,.92-5.37Z" fill="#55555a"/>
        <path id="Trazado_1680" data-name="Trazado 1680" d="M812.32,251.03c1.63-2.62,5.86-8.08,9.5-8.54,1.44-.18,2.79.4,3.85,2.29.54,2.48-.83,5.33-2.42,7.16a1.4,1.4,0,0,1-.84.36c-1.22.15-2.77-.95-2.1-2.18.28-.59,1.01-.81,1.4-1.35.28-.39,1.88-3.18.92-3.31-3.59.55-9.77,8.45-8.81,12.11a2.553,2.553,0,0,0,2.85,1.93c2.67-.34,6.13-3.88,7.54-5.39a1.432,1.432,0,0,1,.7-.38.572.572,0,0,1,.67.44c.12,3.25-4.71,7.68-7.92,7.86-6.14.26-9.06-5.28-5.34-10.98Z" fill="#55555a"/>
        <path id="Trazado_1681" data-name="Trazado 1681" d="M844.64,243.13c.65,1.26-.73,2.77-1.25,3.81-.73,1.46-3.65,6.47-3.15,9.18.64,1.94-1.59,2.65-2.87,1.54-1.32-1.11-1.19-2.43.75-6.98.49-1.27.35-1.64-.29-.71a67.635,67.635,0,0,1-4.56,5.51c-1.26,1.4-3.22,2.95-5.1,1.72-2.1-1.4-2.18-2.27-.74-6.66a28.149,28.149,0,0,1,2.92-6.08c.92-.96,2.82-.19,3.28.89.06.45-.48,1.07-.74,1.4a23.552,23.552,0,0,0-3.02,6.09c-.17.48-.44,1.46-.18,1.69.61.45,7.57-7.48,8.35-8.3,1.29-1.37,2.76-2.96,3.27-3.52.37-.4.68-.84,1.12-.92a2.418,2.418,0,0,1,2.19,1.35Z" fill="#55555a"/>
        <path id="Trazado_1682" data-name="Trazado 1682" d="M855.33,227.25c1.21-1.03,3.29.96,2.9,2.28-4.47,8.04-10.9,17.83-11.32,26.14.03,1.56,2.29.33,2.15,1.75a1.841,1.841,0,0,1-1.52,1.37c-7.19-.59-2.29-12.21-.5-16.09,2.6-5.23,5.44-10.38,8.3-15.45Z" fill="#55555a"/>
        <path id="Trazado_1683" data-name="Trazado 1683" d="M854.53,251.64c-.07.24-.54,1.7-.12,1.65.1-.01.19-.09.33-.21a77.022,77.022,0,0,0,7.66-7.56c.37-.41.61-.86,1.05-.95a2.618,2.618,0,0,1,2.9,3.55,4.692,4.692,0,0,0-.43,1.75c0,.75.9.9,1.29,1.4.39.48.45,1.22-.21,1.43-1.41.44-3.1-.75-3.61-1.99a13.619,13.619,0,0,0-.53-1.37c-.19.02-5.61,6.98-8.2,6.91-6.37-1.05-3.44-7.82.33-13.16,1.38-1.77,2.98-3.77,5.31-4.23,2.54-.55,6.38,1.15,6.07,4.1a1.011,1.011,0,0,1-.89.73.968.968,0,0,1-.6-.09c-.9-.41-1.42-1.91-2.5-1.94-2.14.37-3.5,2.5-4.77,4.09a22.1,22.1,0,0,0-3.08,5.87Z" fill="#55555a"/>
        <path id="Trazado_1684" data-name="Trazado 1684" d="M880.87,242.37c-.02-.16-1.49.91-1.57.98a38.863,38.863,0,0,0-8.27,9.5c-.67,2.21-3.13,1.57-3.81-.24-.33-.77,0-1.34.16-2.11.55-2.65,4.61-11.32,5.96-13.55.77-1.4,3.44.64,3.08,1.89-.03.27-3.43,5.39-3.56,6.69.02-.33,4.26-4.29,5.76-5.56,1.94-1.91,5.01-1.19,5.33,1.65.19,1.51-.45,2.93-.72,4.37-.1.53-.97,2.63.06,2.77.73.07,1.11-.76,1.7-1a1.106,1.106,0,0,1,1.35.32c.52,1.3-.91,2.57-1.95,3.12-2.04.94-4.45-1.13-4.42-3.46a24.34,24.34,0,0,1,.92-5.37Z" fill="#55555a"/>
        <path id="Trazado_1685" data-name="Trazado 1685" d="M884.88,249.4c.07-4.32,6.68-11.95,9.82-14.26,1.94-1.42,4.09-1.96,5.48-1.32.73.36.9.38,1.09.12a74.453,74.453,0,0,0,4.77-10c.78-3.16,4.42.65,3.05,2.45a145.291,145.291,0,0,0-8.29,16.26,14.058,14.058,0,0,0-1.27,4.41c-.14,1.48-.4,1.78-1.3,1.63-.86-.12-1.94-1.42-2.23-1.38-.32.04-3.27,3.06-4.38,3.85-2.35,2.03-6.25,1.67-6.75-1.76Zm14.04-10.04c.24-.45,1.19-1.95.99-2.47-.39-1-2.98.93-3.37,1.21a24.993,24.993,0,0,0-6.61,7.07c-7.05,11.34,8.08-2.46,8.99-5.81Z" fill="#55555a"/>
        <path id="Trazado_1686" data-name="Trazado 1686" d="M909.8,232.77a4.278,4.278,0,0,1,1.53-.52c3.02-.38,5.84,2.85,5.39,5.95-.53,3.79-4.82,11.44-9.15,11.24C899.53,248.3,904.01,236.02,909.8,232.77Zm-2.61,13.38c.91.5,3.66-3.04,4.25-3.83,1.12-1.48,3.4-4.9,1.67-6.71a1,1,0,0,0-.82-.29c-1.25.16-2.98,2.2-3.62,3.13-2.61,3.66-3.16,6.73-1.47,7.69Z" fill="#55555a"/>
        <path id="Trazado_1687" data-name="Trazado 1687" d="M617.12,314.17c1.58-2.65,5.73-8.18,9.36-8.7,1.44-.21,2.8.35,3.88,2.23.58,2.47-.74,5.34-2.31,7.2a1.419,1.419,0,0,1-.83.38c-1.22.17-2.78-.91-2.14-2.15.27-.6.99-.83,1.37-1.37.27-.4,1.83-3.21.87-3.33-3.58.61-9.63,8.6-8.62,12.25a2.56,2.56,0,0,0,2.89,1.88c2.66-.38,6.07-3.98,7.46-5.51a1.412,1.412,0,0,1,.7-.39.589.589,0,0,1,.68.42c.17,3.25-4.58,7.76-7.79,7.98-6.13.35-9.14-5.14-5.51-10.89Z" fill="#55555a"/>
        <path id="Trazado_1688" data-name="Trazado 1688" d="M638.4,305.17a4.023,4.023,0,0,1,1.53-.54c3.01-.43,5.89,2.76,5.48,5.86-.47,3.8-4.63,11.52-8.97,11.39-8.06-1.01-3.77-13.36,1.96-16.7ZM636,318.6c.92.49,3.61-3.1,4.19-3.9,1.1-1.5,3.32-4.96,1.56-6.73a.963.963,0,0,0-.82-.27c-1.25.18-2.95,2.25-3.57,3.19-2.55,3.7-3.05,6.78-1.35,7.72Z" fill="#55555a"/>
        <path id="Trazado_1689" data-name="Trazado 1689" d="M664.76,306.58a36.119,36.119,0,0,0-7.15,8.32c-.61,1-1.15,2.23-2.52,2.29-1.42.1-2.41-.83-2.29-5.23.03-.92.16-2.51.13-3.45-.02-.13-4.41,10.38-5.11,12.57-.38,1.2-.96,2.2-2.43,2.01-1.94-.28-1.54-1.84-.87-3.08,2.29-4.84,4.03-10.03,6.38-14.85.63-1.1,1.58-3.14,3.17-2.8.71.19,2,.73,2.22,1.55.35,1.1-.29,5.51-.24,6.77.87-.75,5.13-5.54,7.31-7a3.2,3.2,0,0,1,4.13.52c2.15,2.93-.7,6.54.13,9.83,1.02,3.45-3.38,2.7-3.63,0-.52-.68.61-6.04.77-7.44Z" fill="#55555a"/>
        <path id="Trazado_1690" data-name="Trazado 1690" d="M686.9,300.37c.67,1.25-.68,2.78-1.19,3.83-.7,1.47-3.55,6.53-3,9.23.67,1.93-1.55,2.67-2.85,1.58-1.33-1.09-1.23-2.41.64-6.99.47-1.28.32-1.65-.3-.71a65.362,65.362,0,0,1-4.47,5.58c-1.24,1.42-3.17,3-5.07,1.8-2.13-1.36-2.22-2.23-.85-6.65a27.831,27.831,0,0,1,2.82-6.13c.91-.98,2.81-.24,3.29.84.06.45-.47,1.08-.71,1.41a23.871,23.871,0,0,0-2.92,6.14c-.16.48-.41,1.47-.15,1.69.62.44,7.45-7.6,8.22-8.43,1.27-1.39,2.71-3.01,3.22-3.57.37-.41.66-.85,1.11-.94a2.44,2.44,0,0,1,2.22,1.32Z" fill="#55555a"/>
        <path id="Trazado_1691" data-name="Trazado 1691" d="M699.26,302.43c-.02-.16-1.47.93-1.56,1.01a38.543,38.543,0,0,0-8.11,9.63c-.63,2.22-3.1,1.62-3.82-.17-.34-.77-.03-1.34.12-2.11.5-2.66,4.42-11.39,5.74-13.64.75-1.42,3.45.59,3.11,1.84-.03.27-3.34,5.45-3.45,6.74.02-.33,4.19-4.36,5.67-5.65,1.91-1.94,4.99-1.27,5.36,1.56.22,1.51-.4,2.93-.65,4.38-.09.53-.93,2.65.1,2.76.73.06,1.1-.78,1.69-1.03a1.1,1.1,0,0,1,1.35.3c.55,1.3-.87,2.58-1.9,3.15-2.02.98-4.47-1.06-4.48-3.38a25.1,25.1,0,0,1,.83-5.39Z" fill="#55555a"/>
        <path id="Trazado_1692" data-name="Trazado 1692" d="M710.34,299.02a21.958,21.958,0,0,0-3.65,9.68c-.11,1.72-1.23,1.68-2.29.69-2.51-1.97,1.07-8.33,2.14-10.64.32-.7.63-1.53,1.48-1.75,1.13-.32,2.7.79,2.32,2.03Zm5.62-11.73c-.62,1.14-1.79,4.9-3.37,4.37-3.04-1.17-.62-3.21.77-4.66,1.08-1.37,3.34-2.51,2.59.28Z" fill="#55555a"/>
        <path id="Trazado_1693" data-name="Trazado 1693" d="M710.44,308.39c0-4.32,6.49-12.05,9.59-14.42,1.92-1.45,4.06-2.02,5.46-1.4.74.35.9.36,1.09.11a73.828,73.828,0,0,0,4.61-10.08c.72-3.18,4.43.58,3.09,2.4a146.246,146.246,0,0,0-8.03,16.39,14.139,14.139,0,0,0-1.2,4.43c-.11,1.49-.37,1.78-1.27,1.65-.86-.1-1.96-1.39-2.25-1.35-.32.05-3.22,3.11-4.31,3.92C714.9,312.11,711,311.81,710.44,308.39Zm13.87-10.26c.23-.46,1.16-1.96.95-2.49-.4-.99-2.97.98-3.35,1.26a25,25,0,0,0-6.5,7.18c-6.87,11.45,8.04-2.59,8.9-5.95Z" fill="#55555a"/>
        <path id="Trazado_1694" data-name="Trazado 1694" d="M731.72,303.75c-.07.24-.51,1.71-.09,1.65.1-.01.18-.09.33-.21a78.057,78.057,0,0,0,7.54-7.68c.36-.41.59-.87,1.04-.97a2.613,2.613,0,0,1,2.95,3.51,4.745,4.745,0,0,0-.4,1.76c0,.75.91.88,1.31,1.38.4.47.47,1.21-.19,1.44-1.41.46-3.11-.7-3.65-1.93a12.331,12.331,0,0,0-.55-1.36c-.19.03-5.5,7.07-8.09,7.04-6.38-.95-3.56-7.77.11-13.17,1.35-1.8,2.92-3.82,5.24-4.31,2.53-.59,6.4,1.05,6.13,4a1.022,1.022,0,0,1-.87.75.9.9,0,0,1-.6-.08c-.91-.39-1.45-1.89-2.53-1.9-2.14.4-3.46,2.56-4.7,4.17a21.952,21.952,0,0,0-2.98,5.92Z" fill="#55555a"/>
        <path id="Trazado_1695" data-name="Trazado 1695" d="M744.99,303.46c0-4.32,6.49-12.05,9.59-14.42,1.92-1.45,4.06-2.02,5.46-1.4.74.35.9.36,1.09.11a73.828,73.828,0,0,0,4.61-10.08c.72-3.18,4.43.58,3.09,2.4a146.248,146.248,0,0,0-8.03,16.39,14.139,14.139,0,0,0-1.2,4.43c-.11,1.49-.37,1.78-1.27,1.65-.86-.1-1.96-1.39-2.25-1.35-.32.05-3.22,3.11-4.31,3.92-2.32,2.07-6.22,1.77-6.78-1.65Zm13.87-10.26c.23-.46,1.16-1.96.95-2.49-.4-.99-2.97.98-3.35,1.26a25,25,0,0,0-6.5,7.18c-6.87,11.45,8.04-2.59,8.9-5.95Z" fill="#55555a"/>
        <path id="Trazado_1696" data-name="Trazado 1696" d="M767.03,296.12c-.16.02-.23.26-.35.77-.35,1.22-.56,2.93.28,4.05a1.5,1.5,0,0,0,1.51.5,10.374,10.374,0,0,0,3.08-1.36,4.324,4.324,0,0,1,1.56-.75c.64-.09.99.28.59,1.62a3.085,3.085,0,0,1-1.14,1.63,5.811,5.811,0,0,1-3,1.47c-3.91.56-7.33-3.89-6.05-8.23,1.71-4.96,5.51-10.67,11.1-11.4a4.152,4.152,0,0,1,3.09,1.68c1.33,1.54.02,3.33-.94,4.65-1.48,1.78-4.42,5.67-7.18,6.06a2.748,2.748,0,0,1-1.96-.41c-.29-.22-.47-.32-.6-.3Zm.9-1.93c.05.35,2.12-.92,2.3-1.05.86-.39,5.5-5,4.62-5.67-.42-.17-1.19.37-1.52.58a15.656,15.656,0,0,0-4.46,4.46,7.048,7.048,0,0,0-.94,1.67Z" fill="#55555a"/>
        <path id="Trazado_1697" data-name="Trazado 1697" d="M782.19,292.19c1.41,2.06,3.37,5.24,1.51,7.6-1.61,2.26-7.55,4.61-7.66.18a1.168,1.168,0,0,1,1.37-1.14c1.29.08,3.82-.48,4.2-1.97.18-.78-.56-1.62-.94-2.22-3.1-4.33-3.12-9.24,2.57-11.07,1.42-.56,4.05-1.85,5.45-.78a1.858,1.858,0,0,1-.72,3.44c-2.73.59-9.1,2.28-5.79,5.96Z" fill="#55555a"/>
        <path id="Trazado_1698" data-name="Trazado 1698" d="M801.58,294.42c.73-.17,5.84-6.72,7.08-8.17,1.61-2,3.64-3.86,4.73-6.24a1.308,1.308,0,0,1,1.06-1.04,2.71,2.71,0,0,1,2.71,2.04c.16,1.12-.67,2.19-1.16,3.11a171.294,171.294,0,0,0-7.81,16.52c-.49,1.38-1.48,3.42-.47,4.75.61.83.42,1.8-.69,2.03-6.91.43.95-13.71,1.91-16.83-2.1,2.23-3.66,5.27-6.3,6.95-1.63.69-3.73-.9-4.24-2.47-.8-3.29.94-6.71,2.18-9.7a8.083,8.083,0,0,1,1.53-2.84,1.38,1.38,0,0,1,.76-.4c.9-.13,1.84.75,2.22,1.61.69,1.61-.97,2.86-1.63,4.13-.97,1.94-2.01,4.47-1.88,6.55Z" fill="#55555a"/>
        <path id="Trazado_1699" data-name="Trazado 1699" d="M830.84,289.59c-.07.24-.51,1.71-.09,1.65.1-.01.18-.09.33-.21a78.057,78.057,0,0,0,7.54-7.68c.36-.41.59-.87,1.04-.97a2.613,2.613,0,0,1,2.95,3.51,4.745,4.745,0,0,0-.4,1.76c0,.75.91.88,1.31,1.38.4.47.47,1.21-.19,1.44-1.41.46-3.11-.7-3.65-1.93a12.331,12.331,0,0,0-.55-1.36c-.19.03-5.5,7.07-8.09,7.04-6.38-.95-3.56-7.77.11-13.17,1.35-1.8,2.92-3.82,5.24-4.31,2.53-.59,6.4,1.05,6.13,4a1.022,1.022,0,0,1-.87.75.9.9,0,0,1-.6-.08c-.91-.39-1.45-1.89-2.53-1.9-2.14.4-3.46,2.56-4.7,4.17a21.952,21.952,0,0,0-2.98,5.92Z" fill="#55555a"/>
        <path id="Trazado_1700" data-name="Trazado 1700" d="M847.03,291.4c-.74-.35-2,4.05-2.2,4.73-.39,1.4-1.43,6.03,0,6.87.49.19,1.02.02,1.09.79a1.5,1.5,0,0,1-1.47,1.65,3.043,3.043,0,0,1-2.53-.75c-3.08-4.4.04-10.93,1.87-15.32,2.23-4.77,4.5-9.51,7.01-14.15.59-1.36,1.2-2.13,1.87-2.23s1.36.39,2.22,1.58c2.36,1.43,5.38,3.06,5.31,6.24.03,6.38-8.24,10.34-13.18,10.59Zm9.4-12.7a1.565,1.565,0,0,0-1.86-.88,3.825,3.825,0,0,0-1.58.62c-1.04.74-1.43,2.13-1.92,3.25-.68,1.4-1.36,2.84-2.04,4.25-.09.24-1.41,2.72-.89,2.71,3.97-1.09,9.62-5.23,8.29-9.95Z" fill="#55555a"/>
        <path id="Trazado_1701" data-name="Trazado 1701" d="M860.86,287.75c.32-2.14,1.47-4.17,2.02-6.27a57.616,57.616,0,0,0,2.03-6.83c.17-.68.3-.89.77-1.03.93-.36,3.04.91,2.51,2.19-1.07,2.38-.14,1.1.6.3,1.82-1.93,4.55-4.34,7.41-4.04,1.13.13,2.45,1.84,1.24,2.74-.53.4-1.32.16-1.92.31-4.15,1.18-8.35,6.36-9.36,8.44a13.471,13.471,0,0,0-1.61,4.78,1.372,1.372,0,0,1-.61.97c-1.18.92-2.97-.2-3.07-1.56Z" fill="#55555a"/>
        <path id="Trazado_1702" data-name="Trazado 1702" d="M880.7,279.88c-.16.02-.23.26-.35.77-.35,1.22-.56,2.93.28,4.05a1.5,1.5,0,0,0,1.51.5,10.374,10.374,0,0,0,3.08-1.36,4.324,4.324,0,0,1,1.56-.75c.64-.09.99.28.59,1.62a3.085,3.085,0,0,1-1.14,1.63,5.811,5.811,0,0,1-3,1.47c-3.91.56-7.33-3.89-6.05-8.23,1.71-4.96,5.51-10.67,11.1-11.4a4.152,4.152,0,0,1,3.09,1.68c1.33,1.54.02,3.33-.94,4.65-1.48,1.78-4.42,5.67-7.18,6.06a2.748,2.748,0,0,1-1.96-.41c-.29-.22-.47-.32-.6-.3Zm.9-1.93c.05.35,2.12-.92,2.3-1.05.86-.39,5.5-5,4.62-5.67-.42-.17-1.19.37-1.52.58a15.656,15.656,0,0,0-4.46,4.46,7.048,7.048,0,0,0-.94,1.67Z" fill="#55555a"/>
        <path id="Trazado_1703" data-name="Trazado 1703" d="M903.53,273.25c-.02-.16-1.47.93-1.56,1.01a38.543,38.543,0,0,0-8.11,9.63c-.63,2.22-3.1,1.62-3.82-.17-.34-.77-.03-1.34.12-2.11.5-2.66,4.42-11.39,5.74-13.64.75-1.42,3.45.59,3.11,1.84-.03.27-3.34,5.45-3.45,6.74.02-.33,4.19-4.36,5.67-5.65,1.91-1.94,4.99-1.27,5.36,1.56.22,1.51-.4,2.93-.65,4.38-.09.53-.93,2.65.1,2.76.73.06,1.1-.78,1.69-1.03a1.1,1.1,0,0,1,1.35.3c.55,1.3-.87,2.58-1.9,3.15-2.02.98-4.47-1.06-4.48-3.38a25.1,25.1,0,0,1,.83-5.39Z" fill="#55555a"/>
        <path id="Trazado_1704" data-name="Trazado 1704" d="M907.66,280.22c0-4.32,6.49-12.05,9.59-14.42,1.92-1.45,4.06-2.02,5.46-1.4.74.35.9.36,1.09.11a73.828,73.828,0,0,0,4.61-10.08c.72-3.18,4.43.58,3.09,2.4a146.248,146.248,0,0,0-8.03,16.39,14.139,14.139,0,0,0-1.2,4.43c-.11,1.49-.37,1.78-1.27,1.65-.86-.1-1.96-1.39-2.25-1.35-.32.05-3.22,3.11-4.31,3.92-2.32,2.07-6.22,1.77-6.78-1.65Zm13.88-10.26c.23-.46,1.16-1.96.95-2.49-.4-.99-2.97.98-3.35,1.26a25,25,0,0,0-6.5,7.18c-6.87,11.45,8.04-2.59,8.9-5.95Z" fill="#55555a"/>
        <path id="Trazado_1705" data-name="Trazado 1705" d="M932.56,267.27a21.958,21.958,0,0,0-3.65,9.68c-.11,1.72-1.23,1.68-2.29.69-2.51-1.97,1.07-8.33,2.14-10.64.32-.7.63-1.53,1.48-1.75,1.13-.32,2.7.79,2.32,2.03Zm5.62-11.73c-.62,1.14-1.79,4.9-3.37,4.37-3.04-1.17-.62-3.21.77-4.66,1.08-1.37,3.34-2.51,2.59.28Z" fill="#55555a"/>
        <path id="Trazado_1706" data-name="Trazado 1706" d="M933.26,279.5c-1.81-1.67-2.23-3.21-.31-4.66,2.21-2.15,8.7-8.24,10.09-10.44a29.772,29.772,0,0,0-4.68.64c-.79.18-1.89-.84-2.11-1.92-.16-.93-.14-.96,1.96-1.39,3.01-.66,7.89-1.09,8.48,3.01.17,1.22-1.18,2.26-1.92,3.05-2.35,2.33-4.36,4.75-6.93,6.91,1.75-.55,8-3.07,7.62-2.73.32-.08,1.06-.38,1.24-.01.52.87-1.79,2.15-2.33,2.49-3.22,1.74-6.25,4.13-9.74,5.28a1.156,1.156,0,0,1-1.37-.23Z" fill="#55555a"/>
        <path id="Trazado_1707" data-name="Trazado 1707" d="M952.21,272.25c-.07.24-.51,1.71-.09,1.65.1-.01.18-.09.33-.21a78.057,78.057,0,0,0,7.54-7.68c.36-.41.59-.87,1.04-.97a2.613,2.613,0,0,1,2.95,3.51,4.745,4.745,0,0,0-.4,1.76c0,.75.91.88,1.31,1.38.4.47.47,1.21-.19,1.44-1.41.46-3.11-.7-3.65-1.93a12.331,12.331,0,0,0-.55-1.36c-.19.03-5.5,7.07-8.09,7.04-6.38-.95-3.56-7.77.11-13.17,1.35-1.8,2.92-3.82,5.24-4.31,2.53-.59,6.4,1.05,6.13,4a1.022,1.022,0,0,1-.87.75.9.9,0,0,1-.6-.08c-.91-.39-1.45-1.89-2.53-1.9-2.14.4-3.46,2.56-4.7,4.17a21.952,21.952,0,0,0-2.98,5.92Z" fill="#55555a"/>
        <path id="Trazado_1708" data-name="Trazado 1708" d="M976.31,266.25c-1.04,7.18-9.31,19.06-17.6,16.29-1.23-.61-2.43-2.14-2.02-3.6.26-.73,1.05-.9,1.42-.14,1.67,4.57,9.3-2.25,10.92-4.37a20.524,20.524,0,0,0,4.32-9.39c.43-2.02.26-4.81-2.54-3.37-1.39.56-2.66.38-3.4-1.12-.83-1.68,1.19-1.97,2.31-2.16,4.7-1.19,7.59,3.69,6.59,7.86Zm.25-14.49c-.39.91-1.07,2.35-2.26,2.25-1.16-.1-2.41-1.75-1.91-2.87.31-.8,2.67-3.06,4.12-3.2,2.03-.03.48,2.91.06,3.82Z" fill="#55555a"/>
        <path id="Trazado_1709" data-name="Trazado 1709" d="M981.97,265.41c-.16.02-.23.26-.35.77-.35,1.22-.56,2.93.28,4.05a1.5,1.5,0,0,0,1.51.5,10.374,10.374,0,0,0,3.08-1.36,4.324,4.324,0,0,1,1.56-.75c.64-.09.99.28.59,1.62a3.085,3.085,0,0,1-1.14,1.63,5.811,5.811,0,0,1-3,1.47c-3.91.56-7.33-3.89-6.05-8.23,1.71-4.96,5.51-10.67,11.1-11.4a4.152,4.152,0,0,1,3.09,1.68c1.33,1.54.02,3.33-.94,4.65-1.48,1.78-4.42,5.67-7.18,6.06a2.748,2.748,0,0,1-1.96-.41c-.29-.22-.47-.32-.6-.3Zm.9-1.92c.05.35,2.12-.92,2.3-1.05.86-.39,5.5-5,4.62-5.67-.42-.17-1.19.37-1.52.58a15.656,15.656,0,0,0-4.46,4.46,7.048,7.048,0,0,0-.94,1.67Z" fill="#55555a"/>
        <path id="Trazado_1710" data-name="Trazado 1710" d="M997.14,261.48c1.41,2.06,3.37,5.24,1.51,7.6-1.61,2.26-7.55,4.61-7.66.18a1.168,1.168,0,0,1,1.37-1.14c1.29.08,3.82-.48,4.2-1.97.18-.78-.56-1.62-.94-2.22-3.1-4.33-3.12-9.24,2.57-11.07,1.42-.56,4.05-1.85,5.45-.78a1.858,1.858,0,0,1-.72,3.44c-2.73.59-9.1,2.28-5.79,5.96Z" fill="#55555a"/>
      </g>
      <g id="Grupo_756" data-name="Grupo 756">
        <path id="Trazado_1711" data-name="Trazado 1711" d="M675.49,254.48c-.02-7.84,3.49-15.29,7.44-21.78,2.53-4.05,8.95-5.07,13.19-3.1,14.25,7.47,2.76,30.6-7.75,36.19-7.1,2.83-12.68-5.04-12.89-11.31Zm17.77-23.56s-.06.54-.13.99c-.2,2.06-2.68,1.03-3.99,1.78-2.58,1.46-4.08,4.57-5.32,7.12-2.84,5.94-4.93,11.52-3.22,18.56,6.22,14.13,28.43-25.21,12.65-28.45Z" fill="#55555a"/>
        <path id="Trazado_1712" data-name="Trazado 1712" d="M661.02,281.1c-.96-.63-.78-2.47-.7-3.29,1.54-14.31,2.78-21.33,3.9-26.19.63-2.73,1.2-5.49,1.81-8.23a2,2,0,0,0,.08-.87c-.02-.14-.11-.7-.45-.81-.29-.1-.63.17-.93.43a3.942,3.942,0,0,0-.92,1.12c-.71,1.39-1.93,3.51-2.48,4.48-.79,1.38-2.02,3.26-2.24,3.73a2.649,2.649,0,0,0-.28.49.653.653,0,0,1-.22.29c-.59.42-1.82-.4-2.26-.7-.73-.49-1.2-.8-1.34-1.35-.11-.45.09-.97.54-1.79,2.78-4.98,4.99-8.34,7.97-13.23a44.375,44.375,0,0,1,4.2-5.13c.53-.61,1.03-.34,1.56.07a5.983,5.983,0,0,1,2.19,5.56,87.364,87.364,0,0,1-2.48,14.72c-1.83,7.09-2.75,10.64-3.09,15.31-.19,2.54-.67,5.05-.76,7.6-.13,3.45.06,6.56-1.73,7.62a2.652,2.652,0,0,1-1.04.34,1.748,1.748,0,0,1-1.32-.16Z" fill="#55555a"/>
        <g id="Grupo_755" data-name="Grupo 755">
          <g id="Grupo_754" data-name="Grupo 754">
            <path id="Trazado_1713" data-name="Trazado 1713" d="M704.58,270.24c-.07.24-.55,1.72-.12,1.67.1-.01.19-.09.34-.21a77.962,77.962,0,0,0,7.77-7.65c.38-.41.62-.87,1.07-.96a2.65,2.65,0,0,1,2.93,3.6,4.617,4.617,0,0,0-.44,1.77c0,.76.91.91,1.3,1.42.39.48.45,1.23-.22,1.45-1.43.44-3.14-.76-3.66-2.02a11.251,11.251,0,0,0-.54-1.39c-.2.02-5.69,7.06-8.31,6.99-2.85-.48-5.44-5.14.35-13.33,1.4-1.79,3.03-3.81,5.38-4.27,2.57-.55,6.46,1.18,6.14,4.16a1.034,1.034,0,0,1-.9.74.988.988,0,0,1-.61-.09c-.91-.42-1.43-1.94-2.53-1.96-2.17.37-3.55,2.53-4.84,4.14a21.912,21.912,0,0,0-3.12,5.94Z" fill="#55555a"/>
            <path id="Trazado_1714" data-name="Trazado 1714" d="M731.27,260.9c-.02-.16-1.5.91-1.59.99a38.821,38.821,0,0,0-8.38,9.61c-.68,2.23-3.17,1.59-3.86-.24-.33-.79,0-1.35.16-2.14.56-2.68,4.68-11.46,6.05-13.71.78-1.42,3.49.66,3.12,1.92-.03.27-3.48,5.46-3.62,6.76.02-.33,4.32-4.34,5.84-5.62,1.97-1.93,5.07-1.2,5.4,1.67.19,1.53-.46,2.97-.74,4.42-.1.54-.99,2.67.05,2.8.74.07,1.13-.77,1.72-1.01a1.107,1.107,0,0,1,1.36.33c.53,1.32-.93,2.59-1.99,3.16-2.06.95-4.51-1.16-4.47-3.51a24.4,24.4,0,0,1,.94-5.44Z" fill="#55555a"/>
            <path id="Trazado_1715" data-name="Trazado 1715" d="M742.89,253.43a3.954,3.954,0,0,1,1.55-.52c3.06-.38,5.91,2.9,5.45,6.03-.55,3.84-4.9,11.58-9.29,11.37-8.14-1.16-3.58-13.6,2.29-16.87Zm-2.67,13.55c.92.51,3.71-3.07,4.31-3.88,1.13-1.5,3.45-4.96,1.7-6.79a.959.959,0,0,0-.83-.29c-1.27.16-3.03,2.23-3.67,3.17C739.09,262.89,738.52,266,740.22,266.98Z" fill="#55555a"/>
            <path id="Trazado_1716" data-name="Trazado 1716" d="M755.18,259.53c1.39,2.11,3.31,5.37,1.39,7.72-1.67,2.26-7.73,4.53-7.76.04a1.184,1.184,0,0,1,1.41-1.13c1.3.1,3.88-.42,4.29-1.92.2-.79-.54-1.65-.91-2.27-3.07-4.44-2.99-9.41,2.8-11.16,1.45-.54,4.14-1.81,5.53-.69a1.881,1.881,0,0,1-.79,3.47c-2.77.54-9.25,2.15-5.97,5.93Z" fill="#55555a"/>
          </g>
          <path id="Trazado_1717" data-name="Trazado 1717" d="M729.65,249.35c.54,1.76,1.7,3.41,3.63,3.64,2.84.05,4.62-5.67,3.02-7.38-.9-1.38-1.59.09-1.87,1.02a13.319,13.319,0,0,1-.82,2.62c-.88,1.45-1.35-.07-1.62-1.03-.41-1.61-1.8-3.82-3.78-2.81a17.833,17.833,0,0,0-3.9,3.43c-1.19,1.21-1.46,1.59-1.4,2.07.48,2.11,2.47,2.35,3.48.44.54-.64,2.77-3.77,3.27-1.98" fill="#55555a"/>
        </g>
      </g>
    </g>
    <g id="Grupo_762" data-name="Grupo 762">
      <g id="Grupo_758" data-name="Grupo 758">
        <path id="Trazado_1718" data-name="Trazado 1718" d="M329.39,106.91h19.02c10.55,0,16.04,4.33,16.04,12.59v.27c0,5.07-2.44,8.79-7.85,10.35,6.3,1.29,9.68,4.87,9.68,11.37v.27c0,8.87-5.82,13.54-16.98,13.54H329.4V106.91Zm17.26,19.89c5.28,0,7.38-1.89,7.38-6.22v-.27c0-4.06-2.3-5.89-7.45-5.89h-6.5V126.8Zm.94,20.92c5.41,0,7.85-2.43,7.85-6.83v-.27c0-4.46-2.43-6.77-8.39-6.77h-6.97v13.87h7.51Z" fill="#55555a"/>
        <path id="Trazado_1719" data-name="Trazado 1719" d="M372.63,109.75a5.359,5.359,0,0,1,5.55-5.35,5.356,5.356,0,1,1,0,10.7A5.324,5.324,0,0,1,372.63,109.75Zm.75,10.15h9.74v35.4h-9.74Z" fill="#55555a"/>
        <path id="Trazado_1720" data-name="Trazado 1720" d="M401.93,149.68v5.62h-9.81V103.87h9.81v21.58a13.126,13.126,0,0,1,11.3-6.36c8.66,0,15.43,6.43,15.43,18.13v.54c0,11.71-6.63,18.27-15.43,18.27-5.48,0-9.47-2.71-11.3-6.36Zm16.78-11.85v-.54c0-7.17-3.52-10.7-8.46-10.7s-8.66,3.59-8.66,10.7v.54c0,7.11,3.38,10.56,8.73,10.56s8.39-3.65,8.39-10.56Z" fill="#55555a"/>
        <path id="Trazado_1721" data-name="Trazado 1721" d="M435.49,103.87h9.74V155.3h-9.74Z" fill="#55555a"/>
        <path id="Trazado_1722" data-name="Trazado 1722" d="M453.7,109.75a5.359,5.359,0,0,1,5.55-5.35,5.356,5.356,0,1,1,0,10.7A5.318,5.318,0,0,1,453.7,109.75Zm.74,10.15h9.74v35.4h-9.74Z" fill="#55555a"/>
        <path id="Trazado_1723" data-name="Trazado 1723" d="M471.02,137.97v-.54c0-11.1,8.05-18.34,18.68-18.34s18.61,7.1,18.61,18.13v.54c0,11.17-8.06,18.27-18.68,18.27s-18.61-7.04-18.61-18.07Zm27.34-.14v-.47c0-6.77-3.18-10.83-8.66-10.83s-8.66,3.93-8.66,10.69v.54c0,6.77,3.11,10.83,8.66,10.83S498.36,144.53,498.36,137.83Z" fill="#55555a"/>
        <path id="Trazado_1724" data-name="Trazado 1724" d="M516.36,144.81V126.88h-4.53v-6.97h4.53v-7.65h9.74v7.65h7.44v6.97H526.1v17.05c0,2.85,1.42,4.2,3.92,4.2a9.017,9.017,0,0,0,3.72-.68v7.58a17.856,17.856,0,0,1-5.95.95c-7.45,0-11.44-3.79-11.44-11.16Z" fill="#55555a"/>
        <path id="Trazado_1725" data-name="Trazado 1725" d="M538.21,138.04v-.54c0-11.17,7.92-18.41,18.2-18.41,9.13,0,17.26,5.34,17.26,18v2.7H548.16c.27,5.89,3.45,9.27,8.8,9.27,4.53,0,6.77-1.96,7.38-4.94h9.27c-1.15,7.65-7.24,11.92-16.92,11.92-10.69,0-18.47-6.7-18.47-18.01Zm25.92-4.26c-.34-5.35-3.04-7.92-7.72-7.92-4.4,0-7.38,2.91-8.12,7.92h15.83Z" fill="#55555a"/>
        <path id="Trazado_1726" data-name="Trazado 1726" d="M577.94,138.04v-.54c0-11.44,8.19-18.41,18.27-18.41,8.19,0,15.77,3.58,16.65,13.74h-9.27c-.68-4.13-3.18-6.02-7.17-6.02-5.07,0-8.46,3.79-8.46,10.56v.54c0,7.11,3.18,10.76,8.66,10.76a7.174,7.174,0,0,0,7.58-6.83h8.87c-.54,8.39-6.63,14.21-16.92,14.21s-18.2-6.43-18.2-18.01Z" fill="#55555a"/>
        <path id="Trazado_1727" data-name="Trazado 1727" d="M616.92,145.48c0-8.26,7.58-11.37,18.41-11.37h4v-1.42c0-4.19-1.29-6.5-5.75-6.5-3.86,0-5.62,1.96-6.02,5.01h-9.27c.6-8.39,7.24-12.11,15.9-12.11s14.82,3.52,14.82,13.13v23.07h-9.55v-4.26c-2.03,2.85-5.14,5.01-10.69,5.01-6.43,0-11.84-3.12-11.84-10.56Zm22.4-2.57v-2.98h-3.79c-5.68,0-9,1.21-9,5.01,0,2.57,1.56,4.26,5.14,4.26,4.33,0,7.65-2.37,7.65-6.29Z" fill="#55555a"/>
        <path id="Trazado_1728" data-name="Trazado 1728" d="M673.28,106.91h31.54v8.53H684.18v11.3H700.7v7.99H684.18v12.05h21.73v8.52H673.29V106.91Z" fill="#55555a"/>
        <path id="Trazado_1729" data-name="Trazado 1729" d="M710.09,144.2h9.13c.41,3.18,1.96,5.01,6.23,5.01,3.79,0,5.55-1.42,5.55-3.86s-2.1-3.45-7.17-4.2c-9.41-1.42-13.06-4.13-13.06-11.03,0-7.38,6.77-11.03,14.01-11.03,7.85,0,13.74,2.84,14.61,10.96h-9c-.54-2.91-2.17-4.26-5.55-4.26-3.18,0-5.01,1.49-5.01,3.65s1.69,3.11,6.84,3.85c8.87,1.29,13.74,3.52,13.74,11.1s-5.55,11.64-14.89,11.64-15.09-4.2-15.43-11.84Z" fill="#55555a"/>
        <path id="Trazado_1730" data-name="Trazado 1730" d="M744.47,138.04v-.54c0-11.44,8.19-18.41,18.27-18.41,8.19,0,15.77,3.58,16.65,13.74h-9.27c-.68-4.13-3.18-6.02-7.17-6.02-5.07,0-8.46,3.79-8.46,10.56v.54c0,7.11,3.18,10.76,8.66,10.76a7.174,7.174,0,0,0,7.58-6.83h8.87c-.54,8.39-6.63,14.21-16.92,14.21s-18.2-6.43-18.2-18.01Z" fill="#55555a"/>
        <path id="Trazado_1731" data-name="Trazado 1731" d="M783.58,137.97v-.54c0-11.1,8.05-18.34,18.68-18.34s18.61,7.1,18.61,18.13v.54c0,11.17-8.05,18.27-18.68,18.27s-18.61-7.04-18.61-18.07Zm27.34-.14v-.47c0-6.77-3.18-10.83-8.66-10.83s-8.66,3.93-8.66,10.69v.54c0,6.77,3.12,10.83,8.66,10.83S810.92,144.53,810.92,137.83Z" fill="#55555a"/>
        <path id="Trazado_1732" data-name="Trazado 1732" d="M827.7,103.87h9.74V155.3H827.7Z" fill="#55555a"/>
        <path id="Trazado_1733" data-name="Trazado 1733" d="M844.08,145.48c0-8.26,7.58-11.37,18.41-11.37h4v-1.42c0-4.19-1.29-6.5-5.75-6.5-3.86,0-5.62,1.96-6.02,5.01h-9.27c.6-8.39,7.24-12.11,15.9-12.11s14.82,3.52,14.82,13.13v23.07h-9.54v-4.26c-2.03,2.85-5.14,5.01-10.69,5.01-6.43,0-11.84-3.12-11.84-10.56Zm22.4-2.57v-2.98h-3.79c-5.68,0-9,1.21-9,5.01,0,2.57,1.56,4.26,5.14,4.26,4.33,0,7.65-2.37,7.65-6.29Z" fill="#55555a"/>
        <path id="Trazado_1734" data-name="Trazado 1734" d="M884.54,119.9h9.81v6.77c2.24-4.74,5.69-7.24,11.44-7.31v9.13c-7.24-.07-11.44,2.3-11.44,9.07v17.73h-9.81v-35.4Z" fill="#55555a"/>
      </g>
      <path id="Trazado_1735" data-name="Trazado 1735" d="M329.39,173.2h31.06v8.59h-20.1v12.79h15.91v8.26H340.35v18.75H329.39V173.21Z" fill="#55555a"/>
      <g id="Grupo_759" data-name="Grupo 759">
        <path id="Trazado_1736" data-name="Trazado 1736" d="M365.25,209V186.2h9.74v21.45c0,4.8,1.96,7.1,6.16,7.1s7.38-2.57,7.38-7.78V186.2h9.74v35.39h-9.74v-5.55c-1.82,3.59-5.41,6.29-11.23,6.29-6.9,0-12.04-4.06-12.04-13.33Z" fill="#55555a"/>
        <path id="Trazado_1737" data-name="Trazado 1737" d="M408.42,211.1V193.17h-4.53V186.2h4.53v-7.65h9.74v7.65h7.44v6.97h-7.44v17.05c0,2.84,1.42,4.19,3.92,4.19a9.017,9.017,0,0,0,3.72-.68v7.58a17.875,17.875,0,0,1-5.96.95c-7.44,0-11.43-3.79-11.43-11.16Z" fill="#55555a"/>
        <path id="Trazado_1738" data-name="Trazado 1738" d="M432.17,209V186.2h9.74v21.45c0,4.8,1.96,7.1,6.16,7.1s7.38-2.57,7.38-7.78V186.2h9.74v35.39h-9.74v-5.55c-1.83,3.59-5.41,6.29-11.23,6.29-6.9,0-12.05-4.06-12.05-13.33Z" fill="#55555a"/>
        <path id="Trazado_1739" data-name="Trazado 1739" d="M473.85,186.19h9.82v6.77c2.23-4.74,5.68-7.24,11.43-7.31v9.13c-7.24-.07-11.43,2.3-11.43,9.07v17.73h-9.82Z" fill="#55555a"/>
        <path id="Trazado_1740" data-name="Trazado 1740" d="M499.37,204.26v-.54c0-11.1,8.05-18.34,18.68-18.34s18.61,7.11,18.61,18.14v.54c0,11.17-8.05,18.27-18.68,18.27s-18.61-7.04-18.61-18.07Zm27.34-.14v-.47c0-6.77-3.18-10.83-8.66-10.83s-8.66,3.92-8.66,10.7v.54c0,6.77,3.12,10.83,8.66,10.83s8.66-4.06,8.66-10.76Z" fill="#55555a"/>
      </g>
      <g id="Grupo_760" data-name="Grupo 760">
        <path id="Trazado_1741" data-name="Trazado 1741" d="M558.02,202.7V173.2h11.03v28.83c0,8.05,2.37,11.57,9,11.57s9.34-3.11,9.34-11.98V173.2h11.03v29.1c0,13.2-7.38,20.03-20.44,20.03s-19.96-6.77-19.96-19.62Z" fill="#3f76bb"/>
        <path id="Trazado_1742" data-name="Trazado 1742" d="M605.93,197.7v-.54c0-14.69,10.29-24.7,24.02-24.7,11.64,0,20.3,5.68,21.45,17.59H640.17c-.81-5.82-4.06-8.93-10.15-8.93-7.65,0-12.52,5.96-12.52,15.97v.54c0,10.02,4.6,15.83,12.59,15.83,6.02,0,10.22-3.04,11.1-9.27h10.76c-1.22,11.98-9.81,18.13-21.72,18.13-15.83,0-24.3-9.74-24.3-24.63Z" fill="#3f76bb"/>
      </g>
      <path id="Trazado_1743" data-name="Trazado 1743" d="M224.36,127.08a10.019,10.019,0,0,1-14.12,0,9.911,9.911,0,0,1,0-14.06,10.019,10.019,0,0,1,14.12,0,9.911,9.911,0,0,1,0,14.06" fill="#fecb09"/>
      <path id="Trazado_1744" data-name="Trazado 1744" d="M146.08,181.01a10.024,10.024,0,0,0-2.92.43,9.927,9.927,0,0,1-3.86,2.91c-.33.14-.67.26-1,.37a10.025,10.025,0,1,0,7.78-3.7" fill="#3d76bb"/>
      <path id="Trazado_1745" data-name="Trazado 1745" d="M217.29,181.01a9.954,9.954,0,0,0-9.55,12.85,9.932,9.932,0,0,1,2.92,3.84c.14.33.26.66.37,1a9.96,9.96,0,1,0,6.27-17.68" fill="#a5c3e8"/>
      <path id="Trazado_1746" data-name="Trazado 1746" d="M232.04,145.56a9.94,9.94,0,1,0,9.99,9.94,9.963,9.963,0,0,0-9.99-9.94" fill="#a5c3e8"/>
      <path id="Trazado_1747" data-name="Trazado 1747" d="M131.34,165.45a9.94,9.94,0,1,1,9.99-9.94,9.963,9.963,0,0,1-9.99,9.94" fill="#fecb09"/>
      <path id="Trazado_1748" data-name="Trazado 1748" d="M181.69,195.7a9.94,9.94,0,1,0,9.99,9.94,9.961,9.961,0,0,0-9.99-9.94" fill="#a5c3e8"/>
      <path id="Trazado_1749" data-name="Trazado 1749" d="M181.69,95.42a9.94,9.94,0,1,0,9.99,9.94,9.961,9.961,0,0,0-9.99-9.94" fill="#a5c3e8"/>
      <path id="Trazado_1750" data-name="Trazado 1750" d="M181.69,224.85a7.29,7.29,0,1,0,7.32,7.29,7.3,7.3,0,0,0-7.32-7.29" fill="#3d76bb"/>
      <path id="Trazado_1751" data-name="Trazado 1751" d="M181.69,252.24a5.08,5.08,0,1,0,5.1,5.08,5.091,5.091,0,0,0-5.1-5.08" fill="#a5c3e8"/>
      <path id="Trazado_1752" data-name="Trazado 1752" d="M181.69,71.57a7.29,7.29,0,1,0,7.32,7.29,7.3,7.3,0,0,0-7.32-7.29" fill="#a5c3e8"/>
      <path id="Trazado_1753" data-name="Trazado 1753" d="M181.69,49.93a5.08,5.08,0,1,0,5.1,5.08,5.091,5.091,0,0,0-5.1-5.08" fill="#a5c3e8"/>
      <path id="Trazado_1754" data-name="Trazado 1754" d="M164.07,255.92a5.85,5.85,0,1,1,0,.01h0Z" fill="#fecb09"/>
      <path id="Trazado_1755" data-name="Trazado 1755" d="M194.24,50.7a5.078,5.078,0,0,0-.63,10.12,4.584,4.584,0,0,0,.64.04,5.078,5.078,0,0,0,.63-10.12,4.584,4.584,0,0,0-.64-.04" fill="#3d76bb"/>
      <path id="Trazado_1756" data-name="Trazado 1756" d="M152.5,247.97a5.08,5.08,0,0,0-1.47,9.95,4.992,4.992,0,0,0,1.47.22,5.08,5.08,0,0,0,1.47-9.95,4.67,4.67,0,0,0-1.47-.21" fill="#a5c3e8"/>
      <path id="Trazado_1757" data-name="Trazado 1757" d="M210.88,54.19a5.08,5.08,0,0,0-1.47,9.95,4.991,4.991,0,0,0,1.47.22,5.08,5.08,0,0,0,1.47-9.95,4.991,4.991,0,0,0-1.47-.22" fill="#a5c3e8"/>
      <path id="Trazado_1758" data-name="Trazado 1758" d="M129.66,237.96a5.081,5.081,0,0,0-3.91,1.82,4.956,4.956,0,0,1-.43.69c-.06.08-.12.16-.19.24a5.113,5.113,0,1,0,4.54-2.75" fill="#3d76bb"/>
      <path id="Trazado_1759" data-name="Trazado 1759" d="M233.73,64.2a5.124,5.124,0,0,0-4.39,2.48,5.1,5.1,0,0,0,8.3,5.87,4.858,4.858,0,0,1,.43-.68c.06-.08.12-.16.18-.23a5.09,5.09,0,0,0-4.52-7.43" fill="#a5c3e8"/>
      <path id="Trazado_1760" data-name="Trazado 1760" d="M121.21,232.36a5.085,5.085,0,1,0,3.92,8.35l.15-.27a4.6,4.6,0,0,1,.47-.66,5.093,5.093,0,0,0-4.53-7.42" fill="#a5c3e8"/>
      <path id="Trazado_1761" data-name="Trazado 1761" d="M125.74,239.78a6.079,6.079,0,0,0-.47.66l-.15.27c.07-.08.13-.16.19-.24a4.166,4.166,0,0,0,.43-.69" fill="#fff"/>
      <path id="Trazado_1762" data-name="Trazado 1762" d="M242.17,69.81a5.091,5.091,0,0,0-3.92,1.83c-.05.09-.09.17-.14.26a4.6,4.6,0,0,1-.47.66,5.063,5.063,0,0,0,1.49,6.42,5.114,5.114,0,0,0,7.14-1.06,5.086,5.086,0,0,0-4.09-8.11" fill="#3d76bb"/>
      <path id="Trazado_1763" data-name="Trazado 1763" d="M238.25,71.63c-.06.07-.12.15-.18.23a5.516,5.516,0,0,0-.43.68,4.6,4.6,0,0,0,.47-.66,2.147,2.147,0,0,0,.14-.26" fill="#fff"/>
      <path id="Trazado_1764" data-name="Trazado 1764" d="M105.25,222.99a5.1,5.1,0,1,1-.11,7.19,5.113,5.113,0,0,1,.11-7.19" fill="#fecb09"/>
      <path id="Trazado_1765" data-name="Trazado 1765" d="M254.57,80.61a5.085,5.085,0,1,0-.01,10.17,5,5,0,0,0,3.55-1.44,5.08,5.08,0,0,0-3.55-8.73" fill="#a5c3e8"/>
      <path id="Trazado_1766" data-name="Trazado 1766" d="M101.72,213.48a5.085,5.085,0,1,0,3.15,9.09,5.059,5.059,0,0,0,.87-7.13,5.113,5.113,0,0,0-4.02-1.95" fill="#3d76bb"/>
      <path id="Trazado_1767" data-name="Trazado 1767" d="M258.5,89.77a5.112,5.112,0,0,1,7.16.87,5.059,5.059,0,0,1-.87,7.13,5.125,5.125,0,0,1-7.17-.87,5.059,5.059,0,0,1,.87-7.13h0Z" fill="#fecb09"/>
      <path id="Trazado_1768" data-name="Trazado 1768" d="M94.19,202.49a5.081,5.081,0,1,0,4.4,2.5,5.109,5.109,0,0,0-4.4-2.5" fill="#a5c3e8"/>
      <path id="Trazado_1769" data-name="Trazado 1769" d="M269.18,99.67a5.081,5.081,0,1,0,4.4,2.5,5.109,5.109,0,0,0-4.4-2.5" fill="#a5c3e8"/>
      <path id="Trazado_1770" data-name="Trazado 1770" d="M83.8,183.68a5.085,5.085,0,1,1-3.2,6.44,5.108,5.108,0,0,1,3.2-6.44Z" fill="#fecb09"/>
      <path id="Trazado_1771" data-name="Trazado 1771" d="M277.95,118.75a5.156,5.156,0,0,0-1.63.27,5.082,5.082,0,0,0,1.64,9.9,5.156,5.156,0,0,0,1.63-.27,5.082,5.082,0,0,0-1.63-9.9" fill="#a5c3e8"/>
      <path id="Trazado_1772" data-name="Trazado 1772" d="M81.37,166.99a5.521,5.521,0,0,0-.81.06,5.08,5.08,0,0,0,.79,10.1,5.521,5.521,0,0,0,.81-.06,5.08,5.08,0,0,0-.79-10.1" fill="#3d76bb"/>
      <g id="Grupo_761" data-name="Grupo 761" clip-path="url(#clip-path)">
        <path id="Trazado_1773" data-name="Trazado 1773" d="M282.02,135.18a5.521,5.521,0,0,0-.81.06,5.08,5.08,0,0,0,.79,10.1,5.521,5.521,0,0,0,.81-.06,5.08,5.08,0,0,0-.79-10.1" fill="#3d76bb"/>
        <path id="Trazado_1774" data-name="Trazado 1774" d="M80.55,141.53a5.08,5.08,0,0,0-.48,10.14,4.015,4.015,0,0,0,.49.02,5.08,5.08,0,0,0,.47-10.14,4.015,4.015,0,0,0-.49-.02" fill="#a5c3e8"/>
        <path id="Trazado_1775" data-name="Trazado 1775" d="M282.82,160.64a5.08,5.08,0,0,0-.47,10.14,4.014,4.014,0,0,0,.49.02,5.08,5.08,0,0,0,.47-10.14,4.014,4.014,0,0,0-.49-.02" fill="#a5c3e8"/>
      </g>
      <path id="Trazado_1777" data-name="Trazado 1777" d="M82.63,133.17a4.386,4.386,0,1,0,0,.01h0Z" fill="#fecb09"/>
      <path id="Trazado_1778" data-name="Trazado 1778" d="M282.57,169.16a5.087,5.087,0,1,1-5.93,4.1,5.078,5.078,0,0,1,5.93-4.1Z" fill="#fecb09"/>
      <path id="Trazado_1779" data-name="Trazado 1779" d="M86.07,116.93a5.082,5.082,0,0,0-1.72,9.87,5.193,5.193,0,0,0,1.72.3,5.082,5.082,0,0,0,1.72-9.87,5.193,5.193,0,0,0-1.72-.3" fill="#a5c3e8"/>
      <path id="Trazado_1780" data-name="Trazado 1780" d="M277.31,185.24a5.082,5.082,0,0,0-1.72,9.87,5.193,5.193,0,0,0,1.72.3,5.082,5.082,0,0,0,1.73-9.87,5.193,5.193,0,0,0-1.72-.3" fill="#3d76bb"/>
      <path id="Trazado_1781" data-name="Trazado 1781" d="M95.62,102.19a5.087,5.087,0,1,1-6.95,1.94,5.067,5.067,0,0,1,6.95-1.94Z" fill="#fecb09"/>
      <path id="Trazado_1782" data-name="Trazado 1782" d="M270.27,200.62a5.113,5.113,0,1,0,.01,0" fill="#a5c3e8"/>
      <path id="Trazado_1783" data-name="Trazado 1783" d="M101.06,89.55a1.73,1.73,0,1,1,0,.01" fill="#3d76bb"/>
      <path id="Trazado_1784" data-name="Trazado 1784" d="M265.43,213.67a5.055,5.055,0,0,1,.94,7.12,5.118,5.118,0,0,1-7.16.94,5.065,5.065,0,0,1-.94-7.13,5.118,5.118,0,0,1,7.16-.94h0Z" fill="#fecb09"/>
      <path id="Trazado_1785" data-name="Trazado 1785" d="M117.11,73a5.076,5.076,0,1,0,3.94,1.85A5.093,5.093,0,0,0,117.11,73" fill="#a5c3e8"/>
      <path id="Trazado_1786" data-name="Trazado 1786" d="M246.27,229.17a5.076,5.076,0,1,0,3.94,1.85,5.093,5.093,0,0,0-3.94-1.85" fill="#3d76bb"/>
      <path id="Trazado_1787" data-name="Trazado 1787" d="M138.77,64.34a5.1,5.1,0,1,1-6.9-2.12,5.074,5.074,0,0,1,6.9,2.12" fill="#fecb09"/>
      <path id="Trazado_1788" data-name="Trazado 1788" d="M229.12,240.54a5.082,5.082,0,1,0,4.52,2.71,5.11,5.11,0,0,0-4.52-2.71" fill="#a5c3e8"/>
      <path id="Trazado_1789" data-name="Trazado 1789" d="M144.5,56.95a5.157,5.157,0,0,0-1.87.35,5.079,5.079,0,0,0,1.87,9.81,5.157,5.157,0,0,0,1.87-.35,5.079,5.079,0,0,0-1.87-9.81" fill="#a5c3e8"/>
      <path id="Trazado_1790" data-name="Trazado 1790" d="M223.62,248.44a5.1,5.1,0,1,1-6.62-2.87,5.081,5.081,0,0,1,6.62,2.87Z" fill="#fecb09"/>
      <path id="Trazado_1791" data-name="Trazado 1791" d="M161.66,51.91a5.012,5.012,0,0,0-1.01.1,5.078,5.078,0,0,0,1,10.06,5.012,5.012,0,0,0,1.01-.1,5.078,5.078,0,0,0-1-10.06" fill="#3d76bb"/>
      <path id="Trazado_1792" data-name="Trazado 1792" d="M201.73,250.25a5.011,5.011,0,0,0-1.01.1,5.078,5.078,0,0,0,1,10.06,5.011,5.011,0,0,0,1.01-.1,5.078,5.078,0,0,0-1-10.06" fill="#3d76bb"/>
      <path id="Trazado_1793" data-name="Trazado 1793" d="M166.4,223.33a7.332,7.332,0,1,0,1.46.15,7.328,7.328,0,0,0-1.46-.15" fill="#a5c3e8"/>
      <path id="Trazado_1794" data-name="Trazado 1794" d="M196.96,73.09a7.332,7.332,0,1,0,1.46.15,7.32,7.32,0,0,0-1.46-.15" fill="#3d76bb"/>
      <path id="Trazado_1795" data-name="Trazado 1795" d="M147.98,217.11a3.853,3.853,0,0,0-.48.02,7.3,7.3,0,0,1-5.97,10.76,7.313,7.313,0,1,0,6.45-10.77" fill="#fecb09"/>
      <path id="Trazado_1796" data-name="Trazado 1796" d="M215.41,79.31a7.3,7.3,0,1,0-.02,14.59,3.618,3.618,0,0,0,.47-.02,7.3,7.3,0,0,1,5.97-10.76,7.342,7.342,0,0,0-6.43-3.82" fill="#a5c3e8"/>
      <path id="Trazado_1797" data-name="Trazado 1797" d="M141.07,213.31a7.29,7.29,0,1,0-.02,14.58,3.853,3.853,0,0,0,.48-.02,7.283,7.283,0,0,1,5.96-10.75,7.321,7.321,0,0,0-6.43-3.82" fill="#3d76bb"/>
      <path id="Trazado_1798" data-name="Trazado 1798" d="M147.5,217.12a7.283,7.283,0,0,0-5.96,10.75,7.3,7.3,0,0,0,5.97-10.76" fill="#fff"/>
      <path id="Trazado_1799" data-name="Trazado 1799" d="M222.32,83.11a3.854,3.854,0,0,0-.48.02,7.283,7.283,0,0,1-5.96,10.75,7.242,7.242,0,0,0,2.57,2.71,7.3,7.3,0,1,0,3.88-13.48" fill="#fecb09"/>
      <path id="Trazado_1800" data-name="Trazado 1800" d="M221.85,83.13a7.3,7.3,0,0,0-5.97,10.76,7.283,7.283,0,0,0,5.96-10.75" fill="#fff"/>
      <path id="Trazado_1801" data-name="Trazado 1801" d="M119.94,193.97a7.355,7.355,0,0,0-4.37,1.44,7.29,7.29,0,0,0,4.38,13.14,7.355,7.355,0,0,0,4.37-1.44,7.29,7.29,0,0,0-4.38-13.14" fill="#3d76bb"/>
      <path id="Trazado_1802" data-name="Trazado 1802" d="M243.43,102.46a7.355,7.355,0,0,0-4.37,1.44,7.29,7.29,0,0,0,4.38,13.14,7.355,7.355,0,0,0,4.37-1.44,7.29,7.29,0,0,0-4.38-13.14" fill="#3d76bb"/>
      <path id="Trazado_1803" data-name="Trazado 1803" d="M114.58,178.64a7.328,7.328,0,0,1-11,3.79,7.2,7.2,0,0,0,.19,5.06,7.327,7.327,0,0,0,6.77,4.51,7.414,7.414,0,0,0,2.79-.55,7.282,7.282,0,0,0,1.26-12.82" fill="#3d76bb"/>
      <path id="Trazado_1804" data-name="Trazado 1804" d="M252.84,119a7.414,7.414,0,0,0-2.79.55,7.282,7.282,0,0,0-1.26,12.82,7.328,7.328,0,0,1,11-3.79,7.249,7.249,0,0,0-.18-5.06,7.327,7.327,0,0,0-6.77-4.51" fill="#a5c3e8"/>
      <path id="Trazado_1805" data-name="Trazado 1805" d="M111.03,169.9a7.233,7.233,0,0,1-4.74,2.62,7.536,7.536,0,0,1-.94.06,7.241,7.241,0,0,1-3.39-.84,7.268,7.268,0,0,0,1.63,10.68,7.32,7.32,0,0,1,4.16-4.46,7.415,7.415,0,0,1,2.79-.55,7.329,7.329,0,0,1,4.05,1.22,7.21,7.21,0,0,0,.09-4.27,7.284,7.284,0,0,0-3.64-4.47" fill="#a5c3e8"/>
      <path id="Trazado_1806" data-name="Trazado 1806" d="M110.53,177.42a7.452,7.452,0,0,0-2.79.55,7.267,7.267,0,0,0-4.16,4.46,7.334,7.334,0,0,0,11-3.79,7.329,7.329,0,0,0-4.05-1.22" fill="#fff"/>
      <path id="Trazado_1807" data-name="Trazado 1807" d="M259.8,128.57a7.319,7.319,0,0,1-4.16,4.46,7.415,7.415,0,0,1-2.79.55,7.329,7.329,0,0,1-4.05-1.22,7.211,7.211,0,0,0-.09,4.27,7.284,7.284,0,0,0,3.64,4.47,7.233,7.233,0,0,1,4.74-2.62,7.537,7.537,0,0,1,.94-.06,7.355,7.355,0,0,1,3.39.83,7.268,7.268,0,0,0-1.63-10.68" fill="#3d76bb"/>
      <path id="Trazado_1808" data-name="Trazado 1808" d="M255.76,127.36a7.353,7.353,0,0,0-6.96,5.01,7.329,7.329,0,0,0,4.05,1.22,7.414,7.414,0,0,0,2.79-.55,7.267,7.267,0,0,0,4.16-4.46,7.353,7.353,0,0,0-4.04-1.22" fill="#fff"/>
      <path id="Trazado_1809" data-name="Trazado 1809" d="M105.36,158a7.417,7.417,0,0,0-.94.06,7.277,7.277,0,0,0-2.47,13.68,7.328,7.328,0,0,1,9.08-1.85,7.284,7.284,0,0,0-5.66-11.9" fill="#3d76bb"/>
      <path id="Trazado_1810" data-name="Trazado 1810" d="M107.63,169.06a7.189,7.189,0,0,0-1.99.28,7.293,7.293,0,0,0-3.69,2.41,7.241,7.241,0,0,0,3.39.84,7.417,7.417,0,0,0,.94-.06,7.318,7.318,0,0,0,4.74-2.62,7.342,7.342,0,0,0-3.4-.84" fill="#fff"/>
      <path id="Trazado_1811" data-name="Trazado 1811" d="M261.43,139.26a7.328,7.328,0,0,1-9.08,1.85,7.284,7.284,0,0,0,5.66,11.9,7.417,7.417,0,0,0,.94-.06,7.284,7.284,0,0,0,2.47-13.69" fill="#fecb09"/>
      <path id="Trazado_1812" data-name="Trazado 1812" d="M258.04,138.42a7.417,7.417,0,0,0-.94.06,7.318,7.318,0,0,0-4.74,2.62,7.294,7.294,0,0,0,5.4.56,7.223,7.223,0,0,0,3.68-2.41,7.233,7.233,0,0,0-3.39-.83" fill="#fff"/>
      <path id="Trazado_1813" data-name="Trazado 1813" d="M105.32,138.56a7.329,7.329,0,1,0,.93.06,7.32,7.32,0,0,0-.93-.06" fill="#3d76bb"/>
      <path id="Trazado_1814" data-name="Trazado 1814" d="M258.04,157.86a7.329,7.329,0,1,0,.93.06,7.328,7.328,0,0,0-.93-.06" fill="#a5c3e8"/>
      <path id="Trazado_1815" data-name="Trazado 1815" d="M111.16,117.54a7.292,7.292,0,0,0-2.93,13.98,7.4,7.4,0,0,0,2.93.61,7.293,7.293,0,0,0,4.93-12.69,7.47,7.47,0,0,1-2.17-1,8.573,8.573,0,0,1-.82-.64,7.263,7.263,0,0,0-1.95-.26" fill="#a5c3e8"/>
      <path id="Trazado_1816" data-name="Trazado 1816" d="M252.23,178.88a7.3,7.3,0,0,0-4.94,12.69,7.47,7.47,0,0,1,2.17,1,7.358,7.358,0,0,1,.81.64,7.294,7.294,0,1,0,1.95-14.32" fill="#3d76bb"/>
      <path id="Trazado_1817" data-name="Trazado 1817" d="M118.04,105.12a7.29,7.29,0,0,0-4.94,12.68,7.164,7.164,0,0,1,.98.35,7.441,7.441,0,0,1,2.01,1.29,7.139,7.139,0,0,0,1.94.26,7.29,7.29,0,1,0,.01-14.58" fill="#3d76bb"/>
      <path id="Trazado_1818" data-name="Trazado 1818" d="M113.1,117.8a6.636,6.636,0,0,0,.82.64,7.352,7.352,0,0,0,2.17,1,7.442,7.442,0,0,0-2.01-1.29,7.164,7.164,0,0,0-.98-.35" fill="#fff"/>
      <path id="Trazado_1819" data-name="Trazado 1819" d="M245.35,191.3a7.29,7.29,0,1,0,4.93,1.9,7.163,7.163,0,0,1-.98-.35,7.442,7.442,0,0,1-2.01-1.29,7.139,7.139,0,0,0-1.94-.26" fill="#a5c3e8"/>
      <path id="Trazado_1820" data-name="Trazado 1820" d="M247.29,191.56a7.558,7.558,0,0,0,2.99,1.64,7.248,7.248,0,0,0-2.98-1.64" fill="#fff"/>
      <path id="Trazado_1821" data-name="Trazado 1821" d="M140.21,83.65a7.282,7.282,0,1,0,7.33,7.64,7.244,7.244,0,0,1-2.91-3.35,7.319,7.319,0,0,1-.59-3.23,7.369,7.369,0,0,0-3.82-1.07" fill="#3d76bb"/>
      <path id="Trazado_1822" data-name="Trazado 1822" d="M223.15,212.78a7.318,7.318,0,0,0-7.31,6.94,7.244,7.244,0,0,1,2.91,3.35,7.319,7.319,0,0,1,.59,3.23,7.339,7.339,0,0,0,7.76-.08,7.287,7.287,0,0,0-3.96-13.43" fill="#a5c3e8"/>
      <path id="Trazado_1823" data-name="Trazado 1823" d="M151.35,77.77a7.319,7.319,0,0,0-7.31,6.94,7.326,7.326,0,0,1,3.5,6.58,7.341,7.341,0,0,0,6.7.48,7.293,7.293,0,0,0-2.89-14" fill="#fecb09"/>
      <path id="Trazado_1824" data-name="Trazado 1824" d="M144.03,84.71a7.315,7.315,0,0,0,3.5,6.58,7.326,7.326,0,0,0-3.5-6.58" fill="#fff"/>
      <path id="Trazado_1825" data-name="Trazado 1825" d="M212.02,218.65a7.35,7.35,0,0,0-2.88.59,7.293,7.293,0,0,0,2.89,14,7.319,7.319,0,0,0,7.31-6.94,7.326,7.326,0,0,1-3.5-6.58,7.41,7.41,0,0,0-3.82-1.07" fill="#3d76bb"/>
      <path id="Trazado_1826" data-name="Trazado 1826" d="M215.85,219.72A7.179,7.179,0,0,0,217,224a7.26,7.26,0,0,0,2.35,2.3,7.315,7.315,0,0,0-3.5-6.58" fill="#fff"/>
      <path id="Trazado_1827" data-name="Trazado 1827" d="M166.31,73.12a7.3,7.3,0,1,0-.01,14.59,7.409,7.409,0,0,0,1.47-.15,7.291,7.291,0,0,0-1.46-14.44" fill="#3d76bb"/>
      <path id="Trazado_1828" data-name="Trazado 1828" d="M197.08,223.31a7.41,7.41,0,0,0-1.47.15,7.317,7.317,0,1,0,1.47-.15" fill="#fecb09"/>
      <path id="Trazado_1829" data-name="Trazado 1829" d="M227.99,125.85a9.853,9.853,0,0,0-2.92.44,10.547,10.547,0,0,1-.71.79,10.027,10.027,0,0,1-4.14,2.48,9.95,9.95,0,0,0,7.79,16.19,10.069,10.069,0,0,0,3.92-.8A9.94,9.94,0,0,0,228,125.86" fill="#3d76bb"/>
      <path id="Trazado_1830" data-name="Trazado 1830" d="M225.07,126.29a7.534,7.534,0,0,0-1,.37,9.776,9.776,0,0,0-3.85,2.91,9.964,9.964,0,0,0,4.14-2.48,8.73,8.73,0,0,0,.71-.79" fill="#fff"/>
      <path id="Trazado_1831" data-name="Trazado 1831" d="M135.38,165.26a10.069,10.069,0,0,0-3.92.8,9.948,9.948,0,0,0,6.85,18.65,8.857,8.857,0,0,1,.72-.79,10.027,10.027,0,0,1,4.14-2.48,9.95,9.95,0,0,0-7.79-16.19" fill="#a5c3e8"/>
      <path id="Trazado_1832" data-name="Trazado 1832" d="M143.17,181.45a9.964,9.964,0,0,0-4.14,2.48c-.26.25-.49.52-.72.79a7.536,7.536,0,0,0,1-.37,9.978,9.978,0,0,0,3.86-2.91" fill="#fff"/>
      <path id="Trazado_1833" data-name="Trazado 1833" d="M201.47,191.66a10.069,10.069,0,0,0-3.92.8,9.94,9.94,0,0,0,3.93,19.09,10.069,10.069,0,0,0,3.92-.8,9.943,9.943,0,0,0,5.63-12.05c-.27-.22-.54-.46-.8-.71a9.85,9.85,0,0,1-2.49-4.13,10.038,10.038,0,0,0-6.27-2.2" fill="#3d76bb"/>
      <path id="Trazado_1834" data-name="Trazado 1834" d="M207.74,193.86a9.912,9.912,0,0,0,2.49,4.13,10.685,10.685,0,0,0,.8.71,9.256,9.256,0,0,0-.37-1,9.932,9.932,0,0,0-2.92-3.84" fill="#fff"/>
      <path id="Trazado_1835" data-name="Trazado 1835" d="M161.89,99.45a10.069,10.069,0,0,0-3.92.8,9.94,9.94,0,0,0,3.93,19.09,10.069,10.069,0,0,0,3.92-.8,9.94,9.94,0,0,0-3.93-19.09" fill="#3d76bb"/>
      <path id="Trazado_1836" data-name="Trazado 1836" d="M134.96,126.89a9.936,9.936,0,0,0-4.69,18.72,9.462,9.462,0,0,1,1.07-.06,9.989,9.989,0,0,1,4.69,1.16,9.949,9.949,0,0,0-1.06-19.84" fill="#a5c3e8"/>
      <path id="Trazado_1837" data-name="Trazado 1837" d="M131.34,145.56a9.462,9.462,0,0,0-1.07.06c.31.16.63.31.97.45a9.946,9.946,0,0,0,3.71.72,9.462,9.462,0,0,0,1.07-.06,10.019,10.019,0,0,0-4.69-1.16" fill="#fff"/>
      <path id="Trazado_1838" data-name="Trazado 1838" d="M153.68,198.34a9.981,9.981,0,1,1,5.55,12.93,10.006,10.006,0,0,1-5.55-12.93Z" fill="#fecb09"/>
      <path id="Trazado_1839" data-name="Trazado 1839" d="M75.8,157.23V262.4l90.75-90.57-28.6-97.56L75.8,157.23Z" fill="#3f76bb"/>
      <path id="Trazado_1840" data-name="Trazado 1840" d="M166.48,171.76l96.83,27.87L179.82,262.4h-104l90.66-90.64Z" fill="#2a4597"/>
    </g>
  </g>
</svg>
