<svg xmlns="http://www.w3.org/2000/svg" width="27.268" height="23.86" viewBox="0 0 27.268 23.86">
  <path id="Icon_awesome-quote-left" data-name="Icon awesome-quote-left" d="M24.712,14.18H20.451V10.771A3.412,3.412,0,0,1,23.86,7.363h.426a1.275,1.275,0,0,0,1.278-1.278V3.528A1.275,1.275,0,0,0,24.286,2.25H23.86a8.519,8.519,0,0,0-8.521,8.521V23.554a2.557,2.557,0,0,0,2.556,2.556h6.817a2.557,2.557,0,0,0,2.556-2.556V16.736A2.557,2.557,0,0,0,24.712,14.18Zm-15.339,0H5.113V10.771A3.412,3.412,0,0,1,8.521,7.363h.426a1.275,1.275,0,0,0,1.278-1.278V3.528A1.275,1.275,0,0,0,8.947,2.25H8.521A8.519,8.519,0,0,0,0,10.771V23.554A2.557,2.557,0,0,0,2.556,26.11H9.374a2.557,2.557,0,0,0,2.556-2.556V16.736A2.557,2.557,0,0,0,9.374,14.18Z" transform="translate(0 -2.25)"/>
</svg>
